<mxfile host="app.diagrams.net" agent="Mozilla/5.0 (Windows NT 10.0; Win64; x64) AppleWebKit/537.36 (KHTML, like Gecko) Chrome/140.0.0.0 Safari/537.36" version="26.2.14">
  <diagram id="overview" name="Arquitetura — Visão Geral">
    <mxGraphModel dx="1665" dy="743" grid="1" gridSize="10" guides="1" tooltips="1" connect="1" arrows="1" fold="1" page="1" pageScale="1" pageWidth="1000" pageHeight="600" background="#ffffff" math="0" shadow="0">
      <root>
        <mxCell id="0" />
        <mxCell id="1" parent="0" />
        <mxCell id="title" value="Arquitetura — Visão Geral" style="text;html=1;strokeColor=none;fillColor=none;align=left;verticalAlign=top;fontSize=18;fontStyle=1;fontColor=#111827;" parent="1" vertex="1">
          <mxGeometry x="20" y="30" width="400" height="30" as="geometry" />
        </mxCell>
        <mxCell id="subtitle" value="Fluxo principal: Usuário → Vercel CDN → SPA Angular → Backend (Spring Boot/Docker) → PostgreSQL" style="text;html=1;strokeColor=none;fillColor=none;align=left;verticalAlign=top;fontSize=12;fontColor=#6B7280;" parent="1" vertex="1">
          <mxGeometry x="20" y="90" width="960" height="20" as="geometry" />
        </mxCell>
        <mxCell id="user" value="Usuário\nBrowser" style="rounded=1;whiteSpace=wrap;html=1;fillColor=#FFFFFF;strokeColor=#1F2937;strokeWidth=2;arcSize=10;fontSize=12;fontStyle=1;" parent="1" vertex="1">
          <mxGeometry x="20" y="150" width="140" height="60" as="geometry" />
        </mxCell>
        <mxCell id="cdn" value="Vercel CDN\nAssets estáticos" style="rounded=1;whiteSpace=wrap;html=1;fillColor=#FFFFFF;strokeColor=#1F2937;strokeWidth=2;arcSize=10;fontSize=12;fontStyle=1;" parent="1" vertex="1">
          <mxGeometry x="240" y="150" width="160" height="60" as="geometry" />
        </mxCell>
        <mxCell id="backend" value="Backend\nSpring Boot (Docker)" style="rounded=1;whiteSpace=wrap;html=1;fillColor=#FFFFFF;strokeColor=#1F2937;strokeWidth=2;arcSize=10;fontSize=12;fontStyle=1;" parent="1" vertex="1">
          <mxGeometry x="700" y="150" width="220" height="60" as="geometry" />
        </mxCell>
        <mxCell id="db" value="PostgreSQL\nBanco de dados" style="rounded=1;whiteSpace=wrap;html=1;fillColor=#FFFFFF;strokeColor=#1F2937;strokeWidth=2;arcSize=10;fontSize=12;fontStyle=1;" parent="1" vertex="1">
          <mxGeometry x="1000" y="150" width="160" height="60" as="geometry" />
        </mxCell>
        <mxCell id="e1" value="HTTPS" style="endArrow=block;endFill=1;strokeColor=#2563EB;strokeWidth=2;fontSize=11;" parent="1" source="user" target="cdn" edge="1">
          <mxGeometry y="20" relative="1" as="geometry">
            <mxPoint as="offset" />
          </mxGeometry>
        </mxCell>
        <mxCell id="e2" value="CDN" style="endArrow=block;endFill=1;strokeColor=#2563EB;strokeWidth=2;fontSize=11;" parent="1" source="cdn" target="spa" edge="1">
          <mxGeometry x="-0.1429" y="20" relative="1" as="geometry">
            <mxPoint as="offset" />
          </mxGeometry>
        </mxCell>
        <mxCell id="e3" value="Fetch API" style="endArrow=block;endFill=1;strokeColor=#2563EB;strokeWidth=2;fontSize=11;entryX=0;entryY=0.5;entryDx=0;entryDy=0;" parent="1" source="spa" target="backend" edge="1">
          <mxGeometry x="-0.1429" y="20" relative="1" as="geometry">
            <mxPoint x="540" y="180" as="sourcePoint" />
            <mxPoint x="624" y="180" as="targetPoint" />
            <Array as="points" />
            <mxPoint as="offset" />
          </mxGeometry>
        </mxCell>
        <mxCell id="e4" value="JDBC" style="endArrow=block;endFill=1;strokeColor=#2563EB;strokeWidth=2;fontSize=11;" parent="1" source="backend" target="db" edge="1">
          <mxGeometry y="20" relative="1" as="geometry">
            <mxPoint as="offset" />
          </mxGeometry>
        </mxCell>
        <mxCell id="cicd-bg" value="" style="rounded=1;whiteSpace=wrap;html=1;fillColor=#F9FAFB;strokeColor=#E5E7EB;strokeWidth=1;arcSize=10;" parent="1" vertex="1">
          <mxGeometry x="10" y="260" width="1180" height="540" as="geometry" />
        </mxCell>
        <mxCell id="cicd-title" value="CI/CD e Deploy" style="text;html=1;strokeColor=none;fillColor=none;align=left;verticalAlign=top;fontSize=16;fontStyle=1;fontColor=#111827;" parent="1" vertex="1">
          <mxGeometry x="90" y="325" width="400" height="24" as="geometry" />
        </mxCell>
        <mxCell id="cicd-note" value="Publicação de imagem Docker no GHCR e deploy do backend; build e distribuição do frontend no Vercel" style="text;html=1;strokeColor=none;fillColor=none;align=left;verticalAlign=top;fontSize=12;fontColor=#6B7280;" parent="1" vertex="1">
          <mxGeometry x="90" y="351" width="920" height="20" as="geometry" />
        </mxCell>
        <mxCell id="gha-be" value="GitHub Actions\nBuild/Test/Publish" style="rounded=1;whiteSpace=wrap;html=1;fillColor=#FFFFFF;strokeColor=#1F2937;strokeWidth=2;arcSize=10;fontSize=12;fontStyle=1;" parent="1" vertex="1">
          <mxGeometry x="190" y="395" width="180" height="60" as="geometry" />
        </mxCell>
        <mxCell id="ghcr" value="GHCR\nContainer Registry" style="rounded=1;whiteSpace=wrap;html=1;fillColor=#FFFFFF;strokeColor=#1F2937;strokeWidth=2;arcSize=10;fontSize=12;fontStyle=1;" parent="1" vertex="1">
          <mxGeometry x="470" y="395" width="160" height="60" as="geometry" />
        </mxCell>
        <mxCell id="be-host" value="Backend Host\nRender/Railway/VM" style="rounded=1;whiteSpace=wrap;html=1;fillColor=#FFFFFF;strokeColor=#1F2937;strokeWidth=2;arcSize=10;fontSize=12;fontStyle=1;" parent="1" vertex="1">
          <mxGeometry x="760" y="395" width="220" height="60" as="geometry" />
        </mxCell>
        <mxCell id="e5" value="docker push" style="endArrow=block;endFill=1;strokeColor=#10B981;strokeWidth=2;fontSize=11;" parent="1" source="gha-be" target="ghcr" edge="1">
          <mxGeometry y="15" relative="1" as="geometry">
            <Array as="points">
              <mxPoint x="450" y="425" />
            </Array>
            <mxPoint as="offset" />
          </mxGeometry>
        </mxCell>
        <mxCell id="e6" value="docker pull" style="endArrow=block;endFill=1;strokeColor=#10B981;strokeWidth=2;fontSize=11;" parent="1" source="ghcr" target="be-host" edge="1">
          <mxGeometry x="-0.0769" y="15" relative="1" as="geometry">
            <Array as="points">
              <mxPoint x="640" y="425" />
            </Array>
            <mxPoint as="offset" />
          </mxGeometry>
        </mxCell>
        <mxCell id="vercel" value="Vercel\nCDN/Build Frontend" style="rounded=1;whiteSpace=wrap;html=1;fillColor=#FFFFFF;strokeColor=#1F2937;strokeWidth=2;arcSize=10;fontSize=12;fontStyle=1;" parent="1" vertex="1">
          <mxGeometry x="190" y="530" width="180" height="60" as="geometry" />
        </mxCell>
        <mxCell id="e7" value="deploy FE" style="endArrow=block;endFill=1;strokeColor=#10B981;strokeWidth=2;fontSize=11;entryX=0.5;entryY=1;entryDx=0;entryDy=0;exitX=0.5;exitY=0;exitDx=0;exitDy=0;" parent="1" edge="1" target="gha-be" source="vercel">
          <mxGeometry x="0.0667" y="30" relative="1" as="geometry">
            <mxPoint x="340" y="495" as="sourcePoint" />
            <mxPoint x="340" y="455" as="targetPoint" />
            <Array as="points" />
            <mxPoint as="offset" />
          </mxGeometry>
        </mxCell>
        <mxCell id="spring" value="Spring Boot\nContainer em produção" style="rounded=1;whiteSpace=wrap;html=1;fillColor=#FFFFFF;strokeColor=#1F2937;strokeWidth=2;arcSize=10;fontSize=12;fontStyle=1;" parent="1" vertex="1">
          <mxGeometry x="760" y="530" width="220" height="60" as="geometry" />
        </mxCell>
        <mxCell id="e8" value="deploy BE" style="endArrow=block;endFill=1;strokeColor=#10B981;strokeWidth=2;fontSize=11;" parent="1" edge="1">
          <mxGeometry y="40" relative="1" as="geometry">
            <mxPoint x="860" y="455" as="sourcePoint" />
            <mxPoint x="860" y="530" as="targetPoint" />
            <Array as="points">
              <mxPoint x="860" y="475" />
            </Array>
            <mxPoint as="offset" />
          </mxGeometry>
        </mxCell>
        <mxCell id="obs-title" value="Observabilidade &amp; Segurança" style="text;html=1;strokeColor=none;fillColor=none;align=left;verticalAlign=top;fontSize=16;fontStyle=1;fontColor=#111827;" parent="1" vertex="1">
          <mxGeometry x="90" y="630" width="400" height="23" as="geometry" />
        </mxCell>
        <mxCell id="logs" value="Logs &amp; Metrics\nApp logs, status, APM" style="rounded=1;whiteSpace=wrap;html=1;fillColor=#FFFFFF;strokeColor=#1F2937;strokeWidth=2;arcSize=10;fontSize=12;fontStyle=1;" parent="1" vertex="1">
          <mxGeometry x="90" y="680" width="220" height="69" as="geometry" />
        </mxCell>
        <mxCell id="cors" value="CORS\nvercel.app, localhost" style="rounded=1;whiteSpace=wrap;html=1;fillColor=#FFFFFF;strokeColor=#1F2937;strokeWidth=2;arcSize=10;fontSize=12;fontStyle=1;" parent="1" vertex="1">
          <mxGeometry x="350" y="680" width="220" height="69" as="geometry" />
        </mxCell>
        <mxCell id="sec" value="Segurança\nHTTPS, headers, CSRF" style="rounded=1;whiteSpace=wrap;html=1;fillColor=#FFFFFF;strokeColor=#1F2937;strokeWidth=2;arcSize=10;fontSize=12;fontStyle=1;" parent="1" vertex="1">
          <mxGeometry x="610" y="680" width="220" height="69" as="geometry" />
        </mxCell>
        <mxCell id="bkp" value="DB Backups\nsnapshots" style="rounded=1;whiteSpace=wrap;html=1;fillColor=#FFFFFF;strokeColor=#1F2937;strokeWidth=2;arcSize=10;fontSize=12;fontStyle=1;" parent="1" vertex="1">
          <mxGeometry x="870" y="680" width="160" height="69" as="geometry" />
        </mxCell>
        <mxCell id="wkS9rLiZ3IqCgh5m1R-W-3" value="" style="endArrow=block;endFill=1;strokeColor=#2563EB;strokeWidth=2;fontSize=11;entryX=0;entryY=0.5;entryDx=0;entryDy=0;" edge="1" parent="1" target="spa">
          <mxGeometry y="-50" relative="1" as="geometry">
            <mxPoint x="540" y="180" as="sourcePoint" />
            <mxPoint x="700" y="180" as="targetPoint" />
            <Array as="points" />
            <mxPoint as="offset" />
          </mxGeometry>
        </mxCell>
        <mxCell id="spa" value="SPA Angular\nFrontend" style="rounded=1;whiteSpace=wrap;html=1;fillColor=#FFFFFF;strokeColor=#1F2937;strokeWidth=2;arcSize=10;fontSize=12;fontStyle=1;" parent="1" vertex="1">
          <mxGeometry x="470" y="150" width="160" height="60" as="geometry" />
        </mxCell>
      </root>
    </mxGraphModel>
  </diagram>
</mxfile>
